<?xml version="1.0" encoding="UTF-8"?>
<!-- Generator: Adobe Illustrator 15.0.2, SVG Export Plug-In  -->
<!DOCTYPE svg PUBLIC "-//W3C//DTD SVG 1.0//EN" "http://www.w3.org/TR/2001/REC-SVG-20010904/DTD/svg10.dtd" [
	<!ENTITY ns_flows "http://ns.adobe.com/Flows/1.0/">
]>
<svg version="1.0" xmlns="http://www.w3.org/2000/svg" xmlns:xlink="http://www.w3.org/1999/xlink" xmlns:a="http://ns.adobe.com/AdobeSVGViewerExtensions/3.0/" x="0px" y="0px" width="329px" height="49px" viewBox="-5.052 -9.52 329 49" overflow="visible" enable-background="new -5.052 -9.52 329 49" xml:space="preserve">
<defs>
</defs>
<path fill="#AFB7BB" d="M9.842,13.934c-0.794-0.698-1.827-1.039-2.845-1.345c-1.027-0.3-2.039-0.518-2.774-0.83  c-0.744-0.321-1.158-0.683-1.158-1.295c0.013-1.192,0.763-1.831,1.912-1.846c0.786,0,1.418,0.271,1.905,0.736  c0.47,0.445,0.805,1.097,0.961,1.854h2.439V6.512H7.739l0.003,0.807c-0.8-0.642-1.819-1.141-2.89-1.142  C3.05,6.175,1.823,6.889,1.064,7.785c-0.76,0.897-1.061,1.959-1.062,2.704c-0.004,1.992,0.891,3.14,1.86,3.774  c0.963,0.635,2.015,0.788,2.299,0.874c1.252,0.376,2.267,0.562,2.935,0.888c0.657,0.335,0.983,0.729,0.993,1.7  c-0.001,1.137-0.968,2.011-2.076,2.013c-1.933-0.008-3.166-1.304-3.424-3.198H0.128v5.301h2.543v-0.887  c1.045,0.756,2.254,1.222,3.551,1.222h0.001c1.407,0,2.644-0.477,3.525-1.322c0.883-0.847,1.405-2.06,1.405-3.503  C11.156,15.697,10.633,14.635,9.842,13.934"/>
<path fill="#AFB7BB" d="M24.646,16.507l-0.048,0.098c-0.823,1.627-1.918,2.707-4.089,2.716c-3.062-0.004-4.718-2.349-4.728-5.146  c0.01-2.811,1.709-5.138,4.728-5.142c0.818-0.001,1.656,0.236,2.325,0.69c0.676,0.441,1.203,1.066,1.396,1.865l0.033,0.136h2.504  V6.51h-2.54v0.836c-1.312-0.966-3.274-1.164-3.741-1.168c-1.833,0-3.771,0.628-5.259,1.936c-1.488,1.309-2.512,3.3-2.512,5.981  c0,2.284,0.844,4.305,2.242,5.754c1.395,1.45,3.349,2.327,5.551,2.327c0.011,0,0.019,0,0.029,0c3.308,0,6.012-1.795,6.889-5.445  c0,0,0.021-0.082,0.024-0.224C27.364,16.507,24.646,16.507,24.646,16.507"/>
<polygon fill="#AFB7BB" points="115.984,6.51 115.984,8.908 117.581,8.908 117.581,19.447 115.984,19.447 115.984,21.842   127.699,21.842 127.699,16.997 125.13,16.997 125.13,19.447 120.644,19.447 120.644,15.042 124.812,15.042 124.812,12.498   120.644,12.498 120.644,8.908 125.13,8.908 125.13,10.641 125.315,10.641 125.315,10.651 127.699,10.651 127.699,6.51 "/>
<polygon fill="#AFB7BB" points="111.925,17.043 111.925,19.447 108.726,19.447 108.726,8.908 110.348,8.909 110.348,6.51   103.981,6.51 103.981,8.909 105.663,8.909 105.663,19.447 103.981,19.447 103.981,21.842 114.491,21.842 114.494,17.043 "/>
<path fill="#AFB7BB" d="M134.758,8.906h1.251c0.701,0,1.512,0.004,2.114,0.221c0.602,0.226,0.991,0.588,1,1.442  c-0.006,0.963-0.339,1.438-0.841,1.727c-0.507,0.286-1.229,0.353-1.963,0.353h-1.562V8.906z M141.684,19.446v-3.193  c0-0.465-0.035-0.994-0.31-1.472c-0.228-0.397-0.77-0.739-1.398-0.966c1.359-0.68,2.214-1.744,2.204-3.388v-0.053  c0-0.306-0.021-1.229-0.702-2.092c-1.245-1.654-3.091-1.775-4.229-1.775c-0.204,0-0.387,0.006-0.538,0.006l-6.608-0.002v2.398h1.597  v10.538h-1.597v2.398h6.135v-0.182v-2.216h-1.479v-4.403l1.438,0.001c0.541-0.001,1.179,0.038,1.649,0.235  c0.473,0.205,0.775,0.506,0.781,1.136v5.429h4.51v-2.398H141.684z"/>
<polygon fill="#AFB7BB" points="43.082,8.908 43.082,6.51 37.01,6.51 37.01,8.908 38.428,8.908 38.428,12.498 33.444,12.498   33.444,8.908 34.852,8.908 34.852,6.51 28.785,6.51 28.785,8.908 30.385,8.908 30.385,19.446 28.785,19.446 28.785,21.844   34.855,21.844 34.855,19.446 33.444,19.446 33.444,15.044 38.428,15.044 38.428,19.446 37.01,19.446 37.01,21.844 43.082,21.844   43.082,19.446 41.49,19.446 41.49,8.908 "/>
<polygon fill="#AFB7BB" points="89.763,6.51 89.763,8.909 91.358,8.909 91.358,19.447 89.763,19.447 89.763,21.842 95.999,21.842   95.999,19.447 94.419,19.447 94.419,15.042 98.923,15.044 98.923,12.498 94.419,12.498 94.419,8.908 99.071,8.908 99.071,10.641   101.64,10.641 101.64,6.51 "/>
<path fill="#AFB7BB" d="M50.632,14.496l1.597-5.061h0.062l1.566,5.061H50.632z M58.367,19.446l-3.51-10.54l1.547,0.001V6.51h-8.101  v2.398h1.566l-3.608,10.538h-1.1v2.398h5.398v-2.398h-1.439l0.862-2.555h4.455l0.86,2.555h-1.457v2.398h5.553v-2.398H58.367z"/>
<polygon fill="#AFB7BB" points="61.574,6.512 61.574,8.908 63.166,8.908 63.166,19.446 61.574,19.446 61.574,21.844 73.283,21.844   73.283,16.998 70.716,16.998 70.716,19.446 66.226,19.446 66.226,15.044 70.398,15.044 70.398,12.499 66.226,12.499 66.226,8.908   70.716,8.908 70.716,10.641 73.283,10.641 73.283,6.512 "/>
<polygon fill="#AFB7BB" points="76.084,6.51 76.084,8.908 77.684,8.908 77.684,19.447 76.084,19.447 76.084,21.842 82.318,21.842   82.318,21.662 82.318,19.627 82.318,19.627 82.318,19.447 80.74,19.447 80.74,15.042 85.235,15.042 85.235,12.498 80.74,12.498   80.74,8.908 85.39,8.908 85.39,10.641 87.959,10.641 87.959,6.51 "/>
<path fill="#636466" d="M198.182,6.917L198.182,6.917v15.056h19.947V6.917H198.182z M217.758,21.603h-19.206V7.286h19.206V21.603z"/>
<polygon fill="#AFB7BB" points="216.916,19.939 214.276,14.403 216.577,8.936 214.109,8.936 212.378,13.052 212.378,8.944   210.173,8.944 210.173,19.925 212.378,19.925 212.378,15.611 214.449,19.939 "/>
<polygon fill="#AFB7BB" points="202.142,8.944 199.94,8.944 199.94,19.925 209.005,19.924 209.005,17.964 202.142,17.964 "/>
<path fill="#AFB7BB" d="M205.474,16.716h1.186c0.926,0,2.237-0.927,2.237-2.112v-0.26h-0.002V8.944h-2.204v5.399  c0,0.214-0.176,0.306-0.316,0.306h-0.606c-0.163,0-0.328-0.097-0.328-0.306V8.944h-2.199v5.399v0.26  C203.24,15.789,204.55,16.716,205.474,16.716"/>
<polygon fill="#AFB7BB" points="263.597,12.875 267.802,12.875 267.802,14.833 263.597,14.833 263.597,18.944 259.486,18.944   259.486,14.833 259.486,12.875 259.486,10.917 259.486,8.963 267.802,8.961 267.802,10.917 263.597,10.917 "/>
<path fill="#AFB7BB" d="M272.182,10.843l-1.047,3.906h2.091L272.182,10.843z M270.98,8.964h0.697h1.006h3.132l2.674,9.98h-4.138  l-0.676-2.524h-2.989l-0.677,2.524h-1.957l2.674-9.981L270.98,8.964z"/>
<path fill="#AFB7BB" d="M280.664,8.963h8.709c0.406,0,0.734,0.33,0.734,0.734v1.957h-3.554v-0.736h-1.538h-1.54v6.115h1.54h1.538  v-2.197h-1.538v-1.965h1.268h0.271h3.554v5.339c0,0.404-0.328,0.734-0.734,0.734h-8.709c-0.405,0-0.735-0.331-0.735-0.734V9.697  C279.929,9.293,280.259,8.963,280.664,8.963z"/>
<rect x="229.149" y="4.197" transform="matrix(0.7071 0.7071 -0.7071 0.7071 79.882 -164.8588)" fill="#636466" width="19.609" height="19.609"/>
<polygon fill="#ECECED" points="237.013,4.511 237.013,5.599 238.246,5.599 238.246,8.945 237.013,8.945 237.013,10 240.882,10   240.882,8.945 239.582,8.945 239.582,5.599 240.882,5.599 240.882,4.511 "/>
<polygon fill="#ECECED" points="234.759,11.899 234.759,10.776 230.889,10.776 230.889,11.899 232.154,11.899 232.154,15.209   230.919,15.209 230.919,16.295 234.68,16.295 234.68,15.209 233.453,15.209 233.453,11.899 "/>
<polygon fill="#ECECED" points="235.357,15.208 235.357,16.3 237.856,16.3 237.856,15.208 237.328,15.208 237.328,12.995   239.439,16.3 240.918,16.3 240.918,11.902 241.415,11.902 241.415,10.776 238.947,10.776 238.947,11.902 239.476,11.902   239.476,14.083 237.365,10.776 235.357,10.776 235.357,11.902 235.951,11.902 235.951,15.208 "/>
<path fill="#ECECED" d="M238.346,19.963h1.165l-0.563-1.8L238.346,19.963z M241.906,22.602h-2.431v-1.093h0.565l-0.214-0.6h-1.795  l-0.214,0.6h0.527v1.093h-2.459v-1.056h0.557l1.057-3.348h-0.455v-1.157h3.772v1.157h-0.499l1.021,3.348h0.566V22.602z"/>
<path fill="#ECECED" d="M243.875,13.662h1.195l-0.562-1.801L243.875,13.662z M245,16.3v-1.091h0.563l-0.206-0.6h-1.801l-0.206,0.6  h0.558V16.3h-2.463v-1.091h0.565l1.055-3.347h-0.461v-1.085h3.739v1.123h-0.46l0.982,3.31h0.559V16.3H245z"/>
<path fill="#AFB7BB" d="M198.182,6.917L198.182,6.917v15.056h19.947V6.917H198.182z M217.758,21.603h-19.206V7.286h19.206V21.603z"/>
<polyline fill="#AFB7BB" points="238.953,27.867 225.087,14.001 238.953,0.136 252.818,14.001 "/>
<polygon fill="#FFFFFF" points="237.013,4.511 237.013,5.599 238.246,5.599 238.246,8.945 237.013,8.945 237.013,10 240.882,10   240.882,8.945 239.582,8.945 239.582,5.599 240.882,5.599 240.882,4.511 "/>
<polygon fill="#FFFFFF" points="234.759,11.899 234.759,10.776 230.889,10.776 230.889,11.899 232.154,11.899 232.154,15.209   230.919,15.209 230.919,16.295 234.68,16.295 234.68,15.209 233.453,15.209 233.453,11.899 "/>
<polygon fill="#FFFFFF" points="235.357,15.208 235.357,16.3 237.856,16.3 237.856,15.208 237.328,15.208 237.328,12.995   239.439,16.3 240.918,16.3 240.918,11.902 241.415,11.902 241.415,10.776 238.947,10.776 238.947,11.902 239.476,11.902   239.476,14.083 237.365,10.776 235.357,10.776 235.357,11.902 235.951,11.902 235.951,15.208 "/>
<path fill="#FFFFFF" d="M238.346,19.963h1.165l-0.563-1.8L238.346,19.963z M241.906,22.602h-2.431v-1.093h0.565l-0.214-0.6h-1.795  l-0.214,0.6h0.527v1.093h-2.459v-1.056h0.557l1.057-3.348h-0.455v-1.157h3.772v1.157h-0.499l1.021,3.348h0.566V22.602z"/>
<path fill="#FFFFFF" d="M243.875,13.662h1.195l-0.562-1.801L243.875,13.662z M245,16.3v-1.091h0.563l-0.206-0.6h-1.801l-0.206,0.6  h0.558V16.3h-2.463v-1.091h0.565l1.055-3.347h-0.461v-1.085h3.739v1.123h-0.46l0.982,3.31h0.559V16.3H245z"/>
<path fill="#008335" d="M9.836,13.955c-0.79-0.7-1.82-1.041-2.841-1.346c-1.026-0.299-2.039-0.519-2.773-0.831  c-0.745-0.32-1.156-0.682-1.156-1.294c0.011-1.193,0.761-1.833,1.907-1.849C5.761,8.638,6.395,8.91,6.879,9.375  c0.472,0.445,0.807,1.096,0.965,1.854h2.437V6.532H7.737l0.004,0.806C6.938,6.698,5.921,6.2,4.849,6.198  c-1.8-0.001-3.026,0.712-3.786,1.607C0.303,8.702,0.002,9.765,0,10.51c-0.004,1.994,0.892,3.141,1.86,3.775  c0.963,0.634,2.014,0.788,2.298,0.875c1.254,0.375,2.27,0.562,2.935,0.889c0.657,0.333,0.982,0.728,0.996,1.699  c-0.003,1.137-0.969,2.011-2.076,2.014c-1.933-0.007-3.17-1.306-3.426-3.199H0.125v5.304H2.67v-0.89  c1.046,0.755,2.253,1.223,3.549,1.223h0.003c1.407,0,2.646-0.477,3.524-1.323c0.882-0.847,1.407-2.061,1.405-3.504  C11.154,15.718,10.631,14.656,9.836,13.955"/>
<path fill="#008335" d="M24.648,16.527l-0.051,0.1c-0.824,1.627-1.917,2.708-4.089,2.715c-3.061-0.003-4.718-2.349-4.729-5.145  c0.012-2.811,1.711-5.139,4.729-5.143c0.818-0.001,1.654,0.235,2.325,0.691c0.679,0.441,1.204,1.065,1.398,1.865l0.034,0.138h2.503  l-0.002-5.216h-2.54v0.835c-1.312-0.966-3.273-1.163-3.739-1.167c-1.835,0-3.773,0.628-5.26,1.936  c-1.488,1.308-2.515,3.3-2.514,5.982c0,2.282,0.843,4.305,2.242,5.754c1.396,1.45,3.349,2.327,5.552,2.327c0.011,0,0.02,0,0.028,0  c3.309,0,6.014-1.794,6.89-5.445c0,0,0.021-0.082,0.024-0.224C27.36,16.527,24.648,16.527,24.648,16.527"/>
<polygon fill="#008335" points="115.991,6.532 115.991,8.928 117.591,8.928 117.591,19.468 115.991,19.468 115.991,21.866   127.707,21.866 127.707,17.019 125.138,17.019 125.138,19.468 120.65,19.468 120.65,15.063 124.82,15.063 124.82,12.52   120.65,12.52 120.65,8.928 125.138,8.928 125.138,10.663 125.32,10.663 125.32,10.674 127.707,10.674 127.707,6.532 "/>
<polygon fill="#008335" points="111.933,17.063 111.933,19.468 108.731,19.468 108.731,8.928 110.357,8.93 110.357,6.532   103.986,6.532 103.986,8.93 105.668,8.93 105.668,19.468 103.986,19.468 103.986,21.866 114.501,21.866 114.501,17.063 "/>
<path fill="#008335" d="M134.767,8.928h1.252c0.701-0.001,1.509,0.002,2.111,0.221c0.602,0.225,0.991,0.587,1.002,1.441  c-0.006,0.964-0.339,1.438-0.841,1.727c-0.508,0.288-1.229,0.354-1.961,0.353h-1.563V8.928z M141.69,19.468v-3.193  c0-0.466-0.033-0.994-0.308-1.473c-0.229-0.398-0.771-0.74-1.396-0.966c1.359-0.682,2.211-1.746,2.202-3.389v-0.053  c0-0.307-0.022-1.229-0.701-2.093c-1.246-1.653-3.091-1.776-4.23-1.774c-0.203,0-0.387,0.005-0.537,0.005h-6.609v2.396h1.597v10.54  h-1.597v2.398h6.135v-0.184v-2.214h-1.479v-4.404h1.438c0.54,0,1.177,0.04,1.65,0.236c0.472,0.205,0.771,0.506,0.78,1.136v5.43h4.51  v-2.398H141.69z"/>
<polygon fill="#008335" points="43.084,8.928 43.084,6.532 37.009,6.532 37.009,8.928 38.426,8.928 38.426,12.52 33.446,12.52   33.446,8.928 34.851,8.928 34.851,6.532 28.783,6.532 28.783,8.928 30.384,8.928 30.384,19.468 28.783,19.468 28.783,21.866   34.856,21.866 34.856,19.468 33.446,19.468 33.446,15.063 38.426,15.063 38.426,19.468 37.009,19.468 37.009,21.866 43.084,21.866   43.084,19.468 41.49,19.468 41.49,8.928 "/>
<polygon fill="#008335" points="89.766,6.532 89.766,8.93 91.362,8.93 91.362,19.468 89.766,19.468 89.766,21.866 96.006,21.866   96.006,19.468 94.426,19.468 94.426,15.063 98.929,15.063 98.929,12.52 94.426,12.52 94.426,8.928 99.079,8.928 99.079,10.663   101.646,10.663 101.646,6.532 "/>
<path fill="#008335" d="M50.633,14.518l1.597-5.062h0.062l1.566,5.062H50.633z M58.367,19.468l-3.511-10.54h1.549V6.532h-8.103  v2.396h1.566l-3.607,10.54h-1.099v2.398h5.397v-2.398h-1.44l0.863-2.559h4.455l0.86,2.559h-1.455v2.398h5.55v-2.398H58.367z"/>
<polygon fill="#008335" points="61.573,6.532 61.573,8.928 63.17,8.928 63.17,19.468 61.573,19.468 61.573,21.866 73.285,21.866   73.285,17.019 70.717,17.019 70.717,19.468 66.226,19.468 66.226,15.063 70.399,15.063 70.399,12.52 66.226,12.52 66.226,8.928   70.717,8.928 70.717,10.661 73.285,10.661 73.285,6.532 "/>
<polygon fill="#008335" points="76.086,6.532 76.086,8.928 77.685,8.928 77.685,19.468 76.086,19.468 76.086,21.866 82.319,21.866   82.319,21.682 82.319,19.65 82.319,19.65 82.319,19.468 80.742,19.468 80.742,15.063 85.239,15.063 85.239,12.52 80.742,12.52   80.742,8.928 85.391,8.928 85.391,10.663 87.96,10.663 87.96,6.532 "/>
<polygon fill="#ECECED" points="198.397,7.193 198.397,22.004 218.364,21.986 218.364,7.178 "/>
<path fill="#636466" d="M198.303,7.017L198.303,7.017v15.184h20.124V7.017H198.303z M218.053,21.829h-19.375V7.389h19.375V21.829z"/>
<polygon fill="#636466" points="217.205,20.151 214.542,14.568 216.86,9.053 214.375,9.053 212.624,13.205 212.624,9.062   210.402,9.062 210.402,20.135 212.624,20.135 212.624,15.785 214.718,20.151 "/>
<polygon fill="#636466" points="202.298,9.062 200.077,9.062 200.077,20.135 209.223,20.135 209.223,18.158 202.298,18.158 "/>
<path fill="#636466" d="M205.657,16.899h1.2c0.938,0,2.255-0.933,2.255-2.128v-0.265l0,0V9.062h-2.226v5.444  c0,0.216-0.178,0.31-0.318,0.31h-0.615c-0.164,0-0.331-0.1-0.331-0.31V9.062h-2.22v5.444v0.265  C203.402,15.966,204.724,16.899,205.657,16.899"/>
<rect x="198.491" y="7.204" fill="#FBE813" width="19.75" height="14.812"/>
<path fill="#1A171B" d="M198.303,7.017L198.303,7.017v15.184h20.124V7.017H198.303z M218.053,21.829h-19.375V7.389h19.375V21.829z"/>
<polygon fill="#1A171B" points="217.205,20.151 214.542,14.568 216.86,9.053 214.375,9.053 212.624,13.205 212.624,9.062   210.402,9.062 210.402,20.135 212.624,20.135 212.624,15.785 214.718,20.151 "/>
<polygon fill="#1A171B" points="202.298,9.062 200.077,9.062 200.077,20.135 209.223,20.135 209.223,18.158 202.298,18.158 "/>
<path fill="#1A171B" d="M205.657,16.899h1.2c0.938,0,2.255-0.933,2.255-2.128v-0.265l0,0V9.062h-2.226v5.444  c0,0.216-0.178,0.31-0.318,0.31h-0.615c-0.164,0-0.331-0.1-0.331-0.31V9.062h-2.22v5.444v0.265  C203.402,15.966,204.723,16.899,205.657,16.899"/>
<polygon fill="#636466" points="263.629,13.041 267.753,13.041 267.753,14.96 263.629,14.96 263.629,18.992 259.596,18.992   259.596,14.96 259.596,13.041 259.596,11.121 259.596,9.204 267.753,9.202 267.753,11.121 263.629,11.121 "/>
<polygon fill="none" stroke="#636466" stroke-width="0.116" stroke-miterlimit="3.864" points="263.629,13.042 267.747,13.042   267.747,14.959 263.629,14.959 263.629,18.986 259.604,18.986 259.604,14.959 259.604,13.042 259.604,11.125 259.604,9.211   267.747,9.208 267.747,11.125 263.629,11.125 "/>
<polygon fill="#DA0832" points="263.629,13.041 267.753,13.041 267.753,14.96 263.629,14.96 263.629,18.992 259.596,18.992   259.596,14.96 259.596,13.041 259.596,11.121 259.596,9.204 267.753,9.202 267.753,11.121 263.629,11.121 "/>
<polygon fill="none" stroke="#DA0832" stroke-width="0.116" stroke-miterlimit="3.864" points="263.629,13.042 267.747,13.042   267.747,14.959 263.629,14.959 263.629,18.986 259.604,18.986 259.604,14.959 259.604,13.042 259.604,11.125 259.604,9.211   267.747,9.208 267.747,11.125 263.629,11.125 "/>
<path fill="#636466" d="M272.163,11.046l-1.024,3.833h2.051L272.163,11.046z M270.984,9.204h0.687h0.989h3.069l2.626,9.789h-4.062  l-0.663-2.477H270.7l-0.667,2.477h-1.916l2.623-9.79L270.984,9.204z"/>
<path fill="none" stroke="#636466" stroke-width="0.119" d="M272.167,11.051l-1.026,3.827h2.049L272.167,11.051z M270.992,9.212  h0.681h0.987h3.067l2.617,9.774h-4.051l-0.663-2.473h-2.929l-0.661,2.473h-1.916l2.62-9.774L270.992,9.212z"/>
<path fill="#DA0832" d="M272.163,11.046l-1.024,3.833h2.051L272.163,11.046z M270.984,9.204h0.687h0.989h3.069l2.626,9.789h-4.062  l-0.663-2.477H270.7l-0.667,2.477h-1.916l2.623-9.79L270.984,9.204z"/>
<path fill="none" stroke="#DA0832" stroke-width="0.119" d="M272.167,11.051l-1.026,3.827h2.049L272.167,11.051z M270.992,9.212  h0.681h0.987h3.067l2.617,9.774h-4.051l-0.663-2.473h-2.929l-0.661,2.473h-1.916l2.62-9.774L270.992,9.212z"/>
<path fill="#636466" d="M280.597,9.204h8.543c0.399,0,0.723,0.322,0.723,0.719v1.92h-3.488v-0.721h-1.508h-1.51v5.996h1.51h1.508  v-2.155h-1.508v-1.925h1.241h0.267h3.488v5.237c0,0.395-0.323,0.719-0.723,0.719h-8.543c-0.396,0-0.719-0.324-0.719-0.719V9.922  C279.878,9.526,280.201,9.204,280.597,9.204"/>
<path fill="none" stroke="#636466" stroke-width="0.119" d="M280.603,9.211h8.533c0.397,0,0.719,0.321,0.719,0.718v1.917h-3.482  v-0.721h-1.506h-1.508v5.988h1.508h1.506v-2.152h-1.506v-1.923h1.241h0.265h3.482v5.229c0,0.395-0.321,0.718-0.719,0.718h-8.533  c-0.392,0-0.717-0.323-0.717-0.718V9.929C279.886,9.532,280.211,9.211,280.603,9.211z"/>
<path fill="#DA0832" d="M280.597,9.204h8.543c0.399,0,0.723,0.322,0.723,0.719v1.92h-3.488v-0.721h-1.508h-1.51v5.996h1.51h1.508  v-2.155h-1.508v-1.925h1.241h0.267h3.488v5.237c0,0.395-0.323,0.719-0.723,0.719h-8.543c-0.396,0-0.719-0.324-0.719-0.719V9.922  C279.878,9.526,280.201,9.204,280.597,9.204"/>
<path fill="none" stroke="#DA0832" stroke-width="0.119" d="M280.603,9.211h8.533c0.397,0,0.719,0.321,0.719,0.718v1.917h-3.482  v-0.721h-1.506h-1.508v5.988h1.508h1.506v-2.152h-1.506v-1.923h1.241h0.265h3.482v5.229c0,0.395-0.321,0.718-0.719,0.718h-8.533  c-0.392,0-0.717-0.323-0.717-0.718V9.929C279.886,9.532,280.211,9.211,280.603,9.211z"/>
<polygon fill="#636466" points="239.187,27.792 225.507,14.114 239.187,0.437 252.867,14.114 "/>
<rect x="229.555" y="4.485" transform="matrix(0.7071 0.7071 -0.7071 0.7071 80.0433 -165.0019)" fill="none" stroke="#636466" stroke-width="0.7" width="19.262" height="19.261"/>
<polygon fill="#ECECED" points="237.273,4.754 237.273,5.826 238.49,5.826 238.49,9.127 237.273,9.127 237.273,10.168   241.089,10.168 241.089,9.127 239.81,9.127 239.81,5.826 241.089,5.826 241.089,4.754 "/>
<polygon fill="#ECECED" points="235.049,12.04 235.049,10.934 231.232,10.934 231.232,12.04 232.48,12.04 232.48,15.306   231.265,15.306 231.265,16.378 234.969,16.378 234.969,15.306 233.763,15.306 233.763,12.04 "/>
<polygon fill="#ECECED" points="235.642,15.305 235.642,16.383 238.104,16.383 238.104,15.305 237.586,15.305 237.586,13.123   239.665,16.383 241.128,16.383 241.128,12.043 241.615,12.043 241.615,10.934 239.182,10.934 239.182,12.043 239.703,12.043   239.703,14.195 237.619,10.934 235.642,10.934 235.642,12.043 236.226,12.043 236.226,15.305 "/>
<path fill="#ECECED" d="M238.589,19.995h1.15l-0.558-1.776L238.589,19.995z M242.103,22.597h-2.399v-1.078h0.554l-0.208-0.591  h-1.771l-0.208,0.591h0.52v1.078h-2.43v-1.041h0.552l1.041-3.304h-0.449v-1.14h3.721v1.14h-0.49l1.006,3.304h0.563V22.597z"/>
<path fill="#ECECED" d="M244.043,13.78h1.178l-0.554-1.776L244.043,13.78z M245.151,16.382v-1.077h0.556l-0.203-0.592h-1.773  l-0.209,0.592h0.552v1.077h-2.428v-1.077h0.559l1.039-3.302h-0.455v-1.07h3.691v1.107h-0.456l0.969,3.265h0.553v1.077H245.151z"/>
<polygon fill="#008335" points="239.187,27.792 225.507,14.114 239.187,0.437 252.867,14.114 "/>
<rect x="229.555" y="4.485" transform="matrix(0.7071 0.7071 -0.7071 0.7071 80.0433 -165.0019)" fill="none" stroke="#008335" stroke-width="0.7" width="19.262" height="19.261"/>
<polygon fill="#FFFFFF" points="237.273,4.754 237.273,5.826 238.49,5.826 238.49,9.127 237.273,9.127 237.273,10.168   241.089,10.168 241.089,9.127 239.81,9.127 239.81,5.826 241.089,5.826 241.089,4.754 "/>
<polygon fill="#FFFFFF" points="235.049,12.04 235.049,10.934 231.232,10.934 231.232,12.04 232.48,12.04 232.48,15.306   231.265,15.306 231.265,16.378 234.969,16.378 234.969,15.306 233.763,15.306 233.763,12.04 "/>
<polygon fill="#FFFFFF" points="235.642,15.305 235.642,16.383 238.104,16.383 238.104,15.305 237.586,15.305 237.586,13.123   239.665,16.383 241.128,16.383 241.128,12.043 241.615,12.043 241.615,10.934 239.182,10.934 239.182,12.043 239.703,12.043   239.703,14.195 237.619,10.934 235.642,10.934 235.642,12.043 236.226,12.043 236.226,15.305 "/>
<path fill="#FFFFFF" d="M238.589,19.995h1.15l-0.558-1.776L238.589,19.995z M242.103,22.597h-2.399v-1.078h0.554l-0.208-0.591  h-1.771l-0.208,0.591h0.52v1.078h-2.43v-1.041h0.552l1.041-3.304h-0.449v-1.14h3.721v1.14h-0.49l1.006,3.304h0.563V22.597z"/>
<path fill="#FFFFFF" d="M244.043,13.78h1.178l-0.554-1.776L244.043,13.78z M245.151,16.382v-1.077h0.556l-0.203-0.592h-1.773  l-0.209,0.592h0.552v1.077h-2.428v-1.077h0.559l1.039-3.302h-0.455v-1.07h3.691v1.107h-0.456l0.969,3.265h0.553v1.077H245.151z"/>
</svg>